<svg id="Layer_1" enable-background="new 0 0 464 464" height="512" viewBox="0 0 464 464" width="512" xmlns="http://www.w3.org/2000/svg"><path d="m415.793 400.07-81.815-70.127c-3.354-2.875-3.743-7.926-.868-11.28 2.876-3.354 7.926-3.743 11.281-.868l81.815 70.127c3.354 2.875 3.743 7.926.868 11.28-2.875 3.353-7.924 3.744-11.281.868z" fill="#e84857"/><path d="m368.315 192.603c-1.229-4.244 1.216-8.68 5.46-9.909l56.106-16.238c4.241-1.229 8.681 1.216 9.909 5.46 1.229 4.244-1.216 8.68-5.46 9.909l-56.106 16.238c-4.24 1.228-8.68-1.213-9.909-5.46z" fill="#e84857"/><path d="m37.007 365.832c-7.939 0-11.042-10.402-4.344-14.723l65.409-42.197c3.712-2.396 8.664-1.328 11.06 2.385 2.395 3.713 1.327 8.664-2.386 11.059-71.179 45.919-66.427 43.476-69.739 43.476z" fill="#e84857"/><path d="m398 232c0 113.539-112.265 194.5-220.52 156.83-107.841-37.467-146.785-171.062-75.11-260.53 30.42-37.98 77.18-62.3 129.63-62.3 91.74 0 166 74.375 166 166z" fill="#fe4f60"/><circle cx="292" cy="255" fill="#e84857" r="57"/><circle cx="155" cy="252" fill="#e84857" r="31"/><path d="m158.815 442.557c-4.173-1.45-6.381-6.009-4.932-10.182l31.311-90.092c1.45-4.174 6.01-6.38 10.183-4.929s6.38 6.01 4.929 10.184l-31.309 90.088c-1.45 4.173-6.009 6.381-10.182 4.931z" fill="#e84857"/><path d="m293.056 124.22c-3.844-2.178-5.195-7.06-3.017-10.904l44.963-79.348c2.178-3.844 7.059-5.195 10.904-3.016 3.844 2.178 5.194 7.06 3.016 10.904l-44.962 79.348c-2.178 3.843-7.058 5.195-10.904 3.016z" fill="#e84857"/><g fill="#ff6d7a"><circle cx="442.5" cy="170.5" r="21.5"/><path d="m464 406c0 16.02-12.98 29-29 29-24.938 0-37.984-29.337-22.01-47.87 17.337-20.281 51.01-8.124 51.01 18.87z"/><path d="m347 0c16.02 0 29 12.98 29 29 0 22.37-24.205 36.094-43.29 25.24v-.01c-8.79-4.97-14.71-14.41-14.71-25.23 0-16.02 12.98-29 29-29z"/><circle cx="159.5" cy="442.5" r="21.5"/><circle cx="29" cy="363" r="29"/><path d="m221.608 66.325c28.738-1.781 36.65 38.877 9.249 47.723-62.838 20.286-108.089 76.345-114.171 142.741-2.622 28.624-44.056 29.663-48.589 1.28-15.485-96.967 56.051-185.704 153.511-191.744z"/></g><path d="m150.133 176.747-108.434-86.747c-3.45-2.76-4.009-7.795-1.249-11.245 2.761-3.45 7.796-4.008 11.245-1.249l108.432 86.746c3.45 2.76 4.01 7.794 1.25 11.244-2.76 3.452-7.795 4.011-11.244 1.251z" fill="#e84857"/><path d="m59.64 94.11c-16.932 21.213-51.64 9.396-51.64-18.11 0-16.02 12.98-29 29-29 24.487 0 37.683 28.41 22.64 47.11z" fill="#ff6d7a"/><path d="m221 148c-8.822 0-16-7.177-16-16s7.178-16 16-16 16 7.177 16 16-7.178 16-16 16zm0-16.011v.011c0-.008 0-.011 0-.011z" fill="#e84857"/></svg>